<svg id='Audio_Book_24' width='24' height='24' viewBox='0 0 24 24' xmlns='http://www.w3.org/2000/svg' xmlns:xlink='http://www.w3.org/1999/xlink'><rect width='24' height='24' stroke='none' fill='#000000' opacity='0'/>


<g transform="matrix(0.31 0 0 0.31 12 12)" >
<g style="" >
<g transform="matrix(1 0 0 1 0 21)" >
<linearGradient id="SVGID__e3gXbN4j~h~AVR67YARIa_1" gradientUnits="userSpaceOnUse" gradientTransform="matrix(1 0 0 -1 0 738)" x1="32" y1="686" x2="32" y2="683.667">
<stop offset="0%" style="stop-color:rgb(109,199,255);stop-opacity: 1"/>
<stop offset="100%" style="stop-color:rgb(230,171,255);stop-opacity: 1"/>
</linearGradient>
<path style="stroke: none; stroke-width: 1; stroke-dasharray: none; stroke-linecap: butt; stroke-dashoffset: 0; stroke-linejoin: miter; stroke-miterlimit: 4; fill: url(#SVGID__e3gXbN4j~h~AVR67YARIa_1); fill-rule: nonzero; opacity: 1;" transform=" translate(-32, -53)" d="M 17 52 L 47 52 L 47 54 L 17 54 z" stroke-linecap="round" />
</g>
<g transform="matrix(1 0 0 1 0 0)" >
<linearGradient id="SVGID__e3gXbN4j~h~AVR67YARIb_2" gradientUnits="userSpaceOnUse" gradientTransform="matrix(1 0 0 1 0 0)" x1="32" y1="6" x2="32" y2="58">
<stop offset="0%" style="stop-color:rgb(26,109,255);stop-opacity: 1"/>
<stop offset="100%" style="stop-color:rgb(200,34,255);stop-opacity: 1"/>
</linearGradient>
<path style="stroke: none; stroke-width: 1; stroke-dasharray: none; stroke-linecap: butt; stroke-dashoffset: 0; stroke-linejoin: miter; stroke-miterlimit: 4; fill: url(#SVGID__e3gXbN4j~h~AVR67YARIb_2); fill-rule: nonzero; opacity: 1;" transform=" translate(-32, -32)" d="M 46 6 L 18 6 C 14.690999999999999 6 12 8.690999999999999 12 12 L 12 53 C 12 55.757 14.243 58 17 58 L 47 58 C 49.757 58 52 55.757 52 53 L 52 52 L 52 48 L 52 44 L 52 41 L 52 12 C 52 8.691 49.309 6 46 6 z M 50 53 C 50 54.653999999999996 48.653999999999996 56 47 56 L 17 56 C 15.346 56 14 54.653999999999996 14 53 C 14 51.346000000000004 15.346 50 17 50 L 46 50 C 47.535 50 48.937 49.42 50 48.469 L 50 52 L 50 53 z M 50 44 C 50 46.206 48.206 48 46 48 L 17 48 C 15.870000000000001 48 14.838000000000001 48.391 14 49.026 L 14 12 C 14 9.794 15.794 8 18 8 L 46 8 C 48.206 8 50 9.794 50 12 L 50 41 L 50 44 z" stroke-linecap="round" />
</g>
<g transform="matrix(1 0 0 1 -1 -2.5)" >
<linearGradient id="SVGID__e3gXbN4j~h~AVR67YARIc_3" gradientUnits="userSpaceOnUse" gradientTransform="matrix(1 0 0 1 0 0)" x1="31" y1="17" x2="31" y2="42">
<stop offset="0%" style="stop-color:rgb(109,199,255);stop-opacity: 1"/>
<stop offset="100%" style="stop-color:rgb(230,171,255);stop-opacity: 1"/>
</linearGradient>
<path style="stroke: none; stroke-width: 1; stroke-dasharray: none; stroke-linecap: butt; stroke-dashoffset: 0; stroke-linejoin: miter; stroke-miterlimit: 4; fill: url(#SVGID__e3gXbN4j~h~AVR67YARIc_3); fill-rule: nonzero; opacity: 1;" transform=" translate(-31, -29.5)" d="M 38.191 40.003 C 37.649 39.832 36.391000000000005 37.221000000000004 36.074000000000005 32 L 39.37500000000001 32 C 40.825 32 42 30.881 42 29.5 C 42 28.119 40.825 27 39.375 27 L 36.074 27 C 36.39 21.779 37.643 19.168 38.146 18.997999999999998 C 38.507 19.110999999999997 39.478 20.644 40.009 24.462999999999997 L 41.989 24.188 C 41.617 21.503 40.625 17 38.169 17 C 38.11 17 38.056999999999995 17.021 38 17.026 L 38 17 C 36.526 17 35.99 17.431 35.439 18.001 L 30.556 23 L 26.224 23 C 24.998 23 24 23.998 24 25.225 L 24 26 L 22.414 26 C 21.083 26 20 27.083 20 28.414 L 20 30.836000000000002 C 20 32.167 21.083 33.25 22.414 33.25 L 24 33.25 L 24 33.775 C 24 35.002 24.998 36 26.225 36 L 30.556 36 L 35.489000000000004 41.051 C 35.991 41.57 36.527 42 38 42 L 38 41.974 C 38.057 41.979 38.11 42 38.169 42 C 40.625 42 41.617 37.497 41.989999999999995 34.813 L 40.01 34.538000000000004 C 39.479 38.355 38.508 39.89 38.191 40.003 z M 24 31.25 L 22.414 31.25 C 22.185000000000002 31.25 22 31.064 22 30.836 L 22 28.413999999999998 C 22 28.186 22.186 28 22.414 28 L 24 28 L 24 31.25 z M 29 34 L 26.225 34 C 26.101 34 26 33.899 26 33.775 L 26 33.25 L 26 26 L 26 25.225 C 26 25.101 26.101 25 26.225 25 L 29 25 L 29 34 z M 34.867 37.551 L 31 33.593 L 31 25.407000000000004 L 34.867 21.448000000000004 C 34.224 24.004 34 27.16 34 29.5 C 34 31.84 34.224 34.995 34.867 37.551 z" stroke-linecap="round" />
</g>
</g>
</g>
</svg>
